<?xml version="1.0" standalone="no"?>
<!DOCTYPE svg PUBLIC "-//W3C//DTD SVG 20010904//EN"
 "http://www.w3.org/TR/2001/REC-SVG-20010904/DTD/svg10.dtd">
<svg version="1.0" xmlns="http://www.w3.org/2000/svg"
 width="300.000000pt" height="300.000000pt" viewBox="0 0 300.000000 300.000000"
 preserveAspectRatio="xMidYMid meet">

<g transform="translate(0.000000,300.000000) scale(0.100000,-0.100000)"
fill="#000000" stroke="none">
<path d="M0 1500 l0 -1500 1500 0 1500 0 0 1500 0 1500 -1500 0 -1500 0 0
-1500z m608 688 c59 -29 242 -202 219 -206 -26 -5 -165 36 -233 69 -64 30
-124 87 -124 117 0 47 65 56 138 20z m769 -14 c16 -21 14 -84 -5 -189 -6 -33
-12 -91 -14 -130 -3 -63 -1 -70 16 -70 12 0 48 35 98 95 43 52 112 129 154
171 41 42 79 90 83 105 7 26 13 30 62 36 81 11 95 5 124 -56 14 -29 22 -61 19
-70 -4 -9 -54 -54 -113 -100 -95 -76 -164 -140 -200 -188 -10 -14 -9 -21 4
-41 8 -13 33 -75 54 -138 69 -205 84 -221 165 -165 29 20 57 36 62 36 5 0 15
-14 22 -32 10 -28 9 -35 -13 -64 -34 -45 -118 -104 -169 -119 -116 -35 -207
52 -256 244 -24 94 -45 141 -62 141 -6 0 -22 -10 -35 -22 -22 -21 -23 -28 -23
-170 0 -130 -3 -154 -20 -189 -12 -22 -32 -45 -45 -51 -22 -10 -31 -7 -68 19
-23 17 -51 32 -62 35 -16 3 -19 10 -17 38 2 19 5 82 8 140 2 58 11 217 20 355
13 204 14 259 4 301 -7 29 -10 59 -7 68 9 22 63 36 136 33 49 -3 67 -7 78 -23z
m1105 -27 c4 -7 8 -16 8 -21 0 -18 -70 -73 -131 -102 -68 -33 -217 -80 -225
-71 -8 8 106 120 160 157 81 55 166 72 188 37z m-1897 -342 c50 -13 105 -30
124 -38 l35 -15 -30 -15 c-16 -8 -67 -27 -114 -42 -158 -50 -310 -34 -349 36
-13 24 -12 29 8 57 12 18 37 36 54 41 45 14 166 3 272 -24z m1999 5 c104 -39
78 -164 -37 -177 -83 -10 -212 15 -293 55 -41 20 -74 39 -74 43 0 10 137 57
210 73 77 17 159 20 194 6z m-1783 -377 c-18 -35 -141 -144 -183 -163 -48 -22
-128 -26 -146 -8 -15 15 -15 48 1 69 26 34 141 79 263 103 38 8 70 15 72 15 1
1 -2 -7 -7 -16z m1508 -13 c145 -41 216 -94 193 -145 -10 -21 -18 -25 -57 -25
-25 0 -60 7 -77 16 -37 19 -108 84 -149 136 l-31 38 24 0 c13 0 56 -9 97 -20z
m-1603 -458 c-25 -48 -29 -114 -12 -183 9 -35 21 -68 26 -73 6 -6 10 -14 10
-18 0 -12 -68 -10 -92 3 -49 27 -76 166 -43 230 18 34 69 69 103 69 21 0 22
-1 8 -28z m39 -13 c-20 -57 -18 -143 5 -209 20 -59 19 -70 -4 -51 -58 48 -60
301 -2 301 13 0 13 -5 1 -41z m51 19 c-16 -56 -17 -147 -3 -213 16 -75 14 -91
-8 -61 -35 47 -45 221 -16 274 16 29 35 29 27 0z m1401 6 c3 -8 -2 -23 -11
-32 -15 -16 -77 -17 -697 -20 l-680 -3 3 28 3 28 260 5 c143 3 453 7 688 8
382 2 428 0 434 -14z m170 -54 l71 -32 -16 -28 c-14 -24 -15 -34 -5 -61 7 -18
12 -33 10 -34 -7 -5 -194 -75 -200 -75 -3 0 -4 7 -1 15 3 8 -5 25 -18 38 -24
24 -24 25 -6 47 24 29 23 61 -3 94 l-22 27 22 15 c11 8 21 24 21 34 0 18 3 18
38 6 20 -8 69 -28 109 -46z m-193 -35 c21 -32 20 -78 -2 -98 -17 -15 -82 -17
-693 -17 l-674 -1 -3 66 -3 65 363 3 c200 1 505 3 679 5 l317 2 16 -25z m332
-31 c19 -9 34 -20 34 -24 0 -13 -35 -38 -62 -45 -23 -6 -29 -3 -39 18 -8 18
-8 30 0 46 14 25 23 26 67 5z m-332 -114 c16 -6 26 -17 26 -30 0 -20 -2 -20
-688 -18 l-687 3 -3 28 -3 27 665 0 c408 0 675 -4 690 -10z"/>
</g>
</svg>
